<svg width="604" height="454" viewBox="0 0 604 454" fill="none" xmlns="http://www.w3.org/2000/svg">
<path d="M504.853 54.2606H192.819V366.983H504.853V54.2606Z" fill="url(#paint0_radial_2_0)"/>
<path d="M522.468 137.857C524.849 137.857 526.779 135.923 526.779 133.536C526.779 131.15 524.849 129.216 522.468 129.216C520.087 129.216 518.156 131.15 518.156 133.536C518.156 135.923 520.087 137.857 522.468 137.857Z" fill="#B3EFFF"/>
<path d="M135.439 106.758C137.82 106.758 139.751 104.824 139.751 102.438C139.751 100.051 137.82 98.1169 135.439 98.1169C133.059 98.1169 131.128 100.051 131.128 102.438C131.128 104.824 133.059 106.758 135.439 106.758Z" fill="#B3EFFF"/>
<mask id="mask0_2_0" style="mask-type:alpha" maskUnits="userSpaceOnUse" x="403" y="35" width="76" height="77">
<path d="M414.344 100.561C429.082 115.399 453.015 115.46 467.821 100.697C482.626 85.9346 482.687 61.9407 467.956 47.1025C453.226 32.2643 429.285 32.2037 414.48 46.9663C399.682 61.7288 399.621 85.7227 414.344 100.561Z" fill="url(#paint1_linear_2_0)"/>
</mask>
<g mask="url(#mask0_2_0)">
<path d="M414.344 100.561C429.082 115.399 453.015 115.46 467.821 100.697C482.626 85.9346 482.687 61.9407 467.956 47.1025C453.226 32.2643 429.285 32.2037 414.48 46.9663C399.682 61.7288 399.621 85.7227 414.344 100.561Z" fill="url(#paint2_linear_2_0)"/>
</g>
<path d="M235.892 277.674L480.27 154.383L263.963 334.931" fill="url(#paint3_linear_2_0)"/>
<path d="M368.659 227.341L480.271 154.383L345.669 222.558L368.659 227.341Z" fill="url(#paint4_linear_2_0)"/>
<path d="M138.467 408.539C127.112 416.999 100.241 424.755 100.241 424.755C100.241 424.755 102.393 423.521 105.926 421.774C109.46 420.018 112.389 416.31 112.389 416.31C112.389 416.31 105.171 420.722 95.1375 424.119C85.1111 427.517 71.6948 429.983 71.6948 429.983C71.6948 429.983 74.4203 428.659 79.1995 425.527C83.9862 422.394 92.2081 416.938 92.2081 416.938C92.2081 416.938 71.6872 428.205 40.317 430.369C28.0407 431.217 7.96521 435.621 7.96521 435.621C7.96521 435.621 17.667 427.237 22.28 422.402C29.6111 414.729 38.135 402.388 44.8168 394.594C54.7677 382.987 75.198 362.572 75.198 362.572C75.198 362.572 75.198 362.572 71.0908 364.418C66.9836 366.265 62.0157 368.247 62.0157 368.247C62.0157 368.247 82.5592 348.619 97.848 342.702C115.077 336.036 138.067 339.077 138.067 339.077C138.067 339.077 140.09 348.929 147.61 361.687C155.387 374.868 161.781 380.24 161.781 380.24C161.781 380.24 155.862 395.585 138.467 408.539Z" fill="url(#paint5_linear_2_0)"/>
<path d="M141.208 397.144C132.676 403.5 112.48 409.334 112.48 409.334C112.48 409.334 114.095 408.411 116.753 407.094C119.411 405.778 121.608 402.986 121.608 402.986C121.608 402.986 116.179 406.3 108.644 408.85C101.109 411.4 91.0303 413.261 91.0303 413.261C91.0303 413.261 93.0763 412.262 96.6701 409.909C100.264 407.556 106.447 403.455 106.447 403.455C106.447 403.455 91.0227 411.922 67.4441 413.549C58.218 414.184 43.1331 417.491 43.1331 417.491C43.1331 417.491 50.4264 411.188 53.8918 407.556C59.4033 401.79 65.8057 392.521 70.834 386.657C78.3161 377.932 93.6652 362.595 93.6652 362.595C93.6652 362.595 93.6652 362.595 90.5773 363.979C87.4893 365.364 83.7521 366.855 83.7521 366.855C83.7521 366.855 99.1918 352.107 110.683 347.658C123.631 342.649 140.913 344.934 140.913 344.934C140.913 344.934 142.431 352.342 148.086 361.921C153.929 371.834 158.739 375.859 158.739 375.859C158.739 375.859 154.277 387.406 141.208 397.144Z" fill="url(#paint6_linear_2_0)"/>
<path d="M154.133 316.892C155.432 314.932 191.657 276.024 235.688 253.196C279.72 230.367 299.675 228.415 299.675 228.415C299.675 228.415 310.735 236.239 321.796 256.676C332.857 277.114 336.111 285.369 335.243 287.98C334.374 290.59 291.43 337.11 244.356 356.458C197.289 375.806 191.868 376.896 191.868 376.896C191.868 376.896 186.009 376.245 179.29 366.03C172.57 355.815 156.949 330.376 155.213 324.724C153.476 319.071 154.133 316.892 154.133 316.892Z" fill="url(#paint7_linear_2_0)"/>
<path d="M370.818 226.024C368.213 222.331 364.748 221.673 343.706 221.892C322.664 222.112 300.762 229.066 300.762 229.066L301.011 229.474C304.272 232.206 313.03 240.476 321.804 256.676C330.131 272.059 334.027 280.542 335.084 284.908L335.907 286.239C335.907 286.239 335.907 286.239 339.591 282.759C343.276 279.278 358.459 256.888 364.099 246.454C369.739 236.027 373.423 229.716 370.818 226.024Z" fill="url(#paint8_linear_2_0)"/>
<path d="M193.612 376.237L169.535 427.108C169.535 427.108 193.174 417.324 220.724 399.066C248.274 380.808 250.441 377.978 250.441 377.978L257.817 350.155C257.81 350.155 213.567 370.585 193.612 376.237Z" fill="url(#paint9_linear_2_0)"/>
<path d="M208.138 270.153L182.763 264.939C182.763 264.939 160.422 274.284 141.766 286.459C123.11 298.634 104.892 312.329 104.892 312.329L155.862 314.94C155.87 314.932 191.876 277.977 208.138 270.153Z" fill="url(#paint10_linear_2_0)"/>
<path d="M179.29 366.022C172.563 355.807 156.949 330.368 155.213 324.716C154.737 323.18 154.45 321.909 154.269 320.857L141.117 330.58C141.117 330.58 140.249 340.144 151.959 357.971C163.669 375.798 169.747 381.882 172.563 381.663C175.379 381.443 187.527 375.14 187.527 375.14L187.278 374.732C185.081 373.196 182.272 370.547 179.29 366.022Z" fill="url(#paint11_linear_2_0)"/>
<path d="M141.985 336.24L138.082 339.062C138.082 339.062 137.652 345.146 146.538 359.931C155.432 374.716 160.853 380.149 163.239 380.369C165.624 380.588 167.361 378.409 167.361 378.409C167.361 378.409 146.538 355.149 141.985 336.24Z" fill="url(#paint12_linear_2_0)"/>
<path d="M223.978 304.066L204.454 310.808C204.454 310.808 174.186 327.637 164.326 333.637C151.959 341.158 115.741 365.16 115.741 365.16L117.259 368.421L207.059 314.728L226.794 307.116L223.978 304.066Z" fill="url(#paint13_linear_2_0)"/>
<path d="M117.259 368.413L166.712 345.585C166.712 345.585 185.707 334.704 191.876 330.8C200.792 325.162 226.794 307.108 226.794 307.108L206.19 314.932L117.259 368.413Z" fill="url(#paint14_linear_2_0)"/>
<path d="M312.91 119.939L317.681 117.979C317.681 117.979 318.882 118.532 320.067 121.241C321.585 124.721 321.804 127.112 321.804 127.112L317.032 129.723C317.024 129.723 314.639 123.2 312.91 119.939Z" fill="black"/>
<path d="M269.089 162.986L317.893 133.423C317.893 133.423 318.474 128.785 316.738 124.729C315.001 120.673 312.978 119.508 312.978 119.508L250.222 147.989" fill="url(#paint15_linear_2_0)"/>
<path d="M247.036 147.838C247.036 147.838 237.636 158.196 235.469 169.501C233.303 180.806 233.514 199.715 232.865 206.025C232.215 212.328 228.961 224.072 227.006 229.505C225.05 234.937 224.401 242.55 224.401 242.55C224.401 242.55 238.067 244.07 253.25 242.33C268.433 240.59 273.854 238.638 273.854 238.638C273.854 238.638 272.985 220.811 271.392 215.014C269.799 209.218 269.369 207.191 269.369 207.191C269.369 207.191 269.95 205.019 271.392 201.107C272.842 197.195 280.067 183.28 278.912 177.923C277.757 172.558 274.865 164.734 272.404 162.123C269.943 159.513 268.931 159.082 268.931 159.082C268.931 159.082 263.291 150.963 259.388 147.194C255.484 143.426 250.713 143.857 250.713 143.857L247.036 147.838Z" fill="url(#paint16_linear_2_0)"/>
<path opacity="0.5" d="M250.66 182.417C250.66 182.417 253.189 189.81 257.387 194.736C261.577 199.662 270.184 204.739 270.184 204.739L271.407 201.107L251.241 182.425" fill="url(#paint17_linear_2_0)"/>
<path d="M266.915 156.244C264.922 153.535 261.826 149.525 259.403 147.187C255.499 143.419 250.728 143.85 250.728 143.85L247.089 147.785C249.701 149.389 256.149 150.577 260.271 152.983C262.778 154.443 265.065 155.503 266.915 156.244Z" fill="url(#paint18_linear_2_0)"/>
<path d="M249.573 213.274C249.573 213.274 254.201 213.13 260.852 211.534C267.504 209.937 268.659 208.923 268.659 208.923L267.21 214.863C267.21 214.863 263.88 217.179 259.108 217.617C254.337 218.049 249.127 218.2 249.127 218.2L249.573 213.274Z" fill="url(#paint19_linear_2_0)"/>
<path d="M228.75 242.837C228.75 242.837 230.048 249.791 234.533 252.401C239.018 255.012 243.352 257.04 243.352 257.04L263.888 272.695L231.355 285.884C231.355 285.884 235.545 295.736 239.018 300.669C242.491 305.595 244.945 307.918 244.945 307.479C244.945 307.04 265.481 297.476 276.466 293.276C287.459 289.077 292.947 286.61 294.978 282.411C297.002 278.211 292.668 273.429 290.637 269.661C288.614 265.893 274.873 246.477 272.419 243.722C269.965 240.968 267.934 240.098 267.934 240.098C267.934 240.098 245.375 244.434 228.75 242.837Z" fill="black"/>
<path d="M231.347 285.876L222.529 285.732L212.261 290.371L216.602 300.518L218.625 299.216C218.625 299.216 219.637 308.924 222.529 315.447C225.42 321.969 231.785 327.478 233.227 327.334C234.677 327.19 235.832 324.867 235.832 324.867C235.832 324.867 230.773 316.317 231.785 311.535C232.797 306.753 234.963 299.073 234.963 299.073L236.557 297.332C236.557 297.325 231.642 288.343 231.347 285.876Z" fill="url(#paint20_linear_2_0)"/>
<path d="M231.347 285.876L224.688 285.77C225.02 287.412 225.624 289.955 226.289 290.81C227.195 291.983 232.525 293.852 235.281 298.724L236.557 297.332C236.557 297.325 231.642 288.343 231.347 285.876Z" fill="white"/>
<path d="M233.227 327.326C233.62 327.289 233.989 327.084 234.322 326.82C231.551 324.996 228.637 321.591 225.851 317.906C221.804 312.541 221.509 301.532 220.936 299.209C220.452 297.279 217.47 290.636 216.481 288.456L212.261 290.363L216.602 300.51L218.625 299.209C218.625 299.209 219.637 308.917 222.529 315.439C225.42 321.962 231.785 327.47 233.227 327.326Z" fill="black"/>
<path d="M256.836 144.289C256.836 144.289 256.406 140.596 256.187 139.068C255.968 137.547 256.836 129.723 261.064 126.568C265.292 123.412 272.668 123.087 277.115 125.266C281.562 127.438 285.571 129.942 286.439 131.463C287.308 132.984 287.738 135.814 287.413 136.684C287.089 137.554 286.545 137.554 286.545 137.554L281.992 133.748C281.992 133.748 278.633 137.229 278.519 138.099C278.414 138.969 277.327 143.857 277.327 143.857C277.327 143.857 275.265 143.752 275.265 143.426C275.265 143.101 273.204 137.343 271.687 137.554C270.169 137.774 268.146 137.335 267.24 140.816C266.983 141.814 266.477 144.296 266.477 144.296L259.75 147.013L256.836 144.289Z" fill="black"/>
<path d="M282 133.748C282 133.748 278.64 137.229 278.527 138.099C278.421 138.969 277.334 143.857 277.334 143.857C277.334 143.857 275.273 143.752 275.273 143.426C275.273 143.101 273.212 137.343 271.694 137.554C270.177 137.774 268.153 137.335 267.247 140.816C266.991 141.814 266.485 144.296 266.485 144.296L259.758 147.013L268.652 159.006L270.388 158.28C270.388 158.28 277.47 160.671 278.127 160.595C278.776 160.519 279.501 157.478 279.501 157.19C279.501 156.902 280.732 156.607 281.237 156.464C281.743 156.32 281.094 155.23 281.094 155.23L282.325 155.011L282.755 152.4C282.755 152.4 283.691 152.832 283.986 152.832C284.273 152.832 285.435 152.325 285.435 152.325L284.28 144.062L285.579 142.828L286.085 137.32L285.956 137.032L282 133.748Z" fill="url(#paint21_linear_2_0)"/>
<path d="M250.728 181.676C250.728 181.676 252.608 188.629 269.527 200.078C286.447 211.526 297.727 218.336 301.63 220.515C305.533 222.687 311.46 228.052 311.46 228.052C311.46 228.052 314.79 224.284 316.662 220.803C318.542 217.322 318.972 215.582 318.972 215.582C318.972 215.582 298.149 201.236 291.928 196.31C285.707 191.384 277.327 181.381 276.458 179.353C275.59 177.325 275.447 163.849 269.225 160.368C263.004 156.887 256.066 160.368 253.031 167.761C249.996 175.153 250.728 181.676 250.728 181.676Z" fill="url(#paint22_linear_2_0)"/>
<path d="M313.446 225.267L318.655 227.439C318.655 227.439 320.716 225.593 321.804 222.437C322.891 219.282 323.321 217.875 323.321 217.875L318.98 215.589C318.98 215.589 315.401 223.633 313.446 225.267Z" fill="black"/>
<path d="M323.321 218.745C323.321 218.745 330.697 217.875 332.54 217.875C334.382 217.875 337.961 218.964 341.109 220.372C344.257 221.779 346.643 223.958 346.643 224.503C346.643 225.048 346.099 225.918 344.363 225.593C342.626 225.267 335.575 223.746 334.382 223.852C333.189 223.958 327.443 227.008 325.594 227.008C323.744 227.008 320.384 225.706 320.384 225.706C320.384 225.706 323.321 220.372 323.321 218.745Z" fill="url(#paint23_linear_2_0)"/>
<path d="M317.681 117.987C317.681 117.987 321.154 116.322 323.034 115.308C324.914 114.295 329.104 112.123 332.29 110.814C335.469 109.512 339.667 107.189 340.097 108.347C340.528 109.505 331.853 114.582 331.853 114.582C331.853 114.582 334.744 118.063 334.744 118.638C334.744 119.22 331.709 124.29 331.709 124.29C331.709 124.29 329.331 125.153 328.531 125.017C327.73 124.88 325.782 123.276 325.782 123.276L321.441 124.578C321.441 124.578 319.123 119.213 317.681 117.987Z" fill="url(#paint24_linear_2_0)"/>
<path d="M177.168 94.1445C177.994 94.1445 178.663 93.4737 178.663 92.6463C178.663 91.8188 177.994 91.1481 177.168 91.1481C176.343 91.1481 175.673 91.8188 175.673 92.6463C175.673 93.4737 176.343 94.1445 177.168 94.1445Z" fill="white"/>
<path d="M231.415 137.577C231.415 137.986 231.083 138.319 230.675 138.319C230.267 138.319 229.935 137.986 229.935 137.577C229.935 137.169 230.267 136.836 230.675 136.836C231.083 136.836 231.415 137.169 231.415 137.577Z" fill="white"/>
<path d="M143.556 150.229C143.556 151.348 142.65 152.249 141.54 152.249C140.422 152.249 139.524 151.341 139.524 150.229C139.524 149.109 140.43 148.208 141.54 148.208C142.65 148.208 143.556 149.116 143.556 150.229Z" fill="white"/>
<path d="M89.3391 140.823C89.3391 141.686 88.6445 142.382 87.7914 142.382C86.9307 142.382 86.2361 141.686 86.2361 140.823C86.2361 139.961 86.9307 139.265 87.7914 139.265C88.6445 139.272 89.3391 139.968 89.3391 140.823Z" fill="white"/>
<path d="M224.869 96.6112C224.869 97.3906 224.235 98.0262 223.457 98.0262C222.68 98.0262 222.046 97.3906 222.046 96.6112C222.046 95.8318 222.68 95.1962 223.457 95.1962C224.243 95.1962 224.869 95.8318 224.869 96.6112Z" fill="white"/>
<path d="M493.755 82.9004C494.776 82.9004 495.605 82.0704 495.605 81.0466C495.605 80.0227 494.776 79.1927 493.755 79.1927C492.733 79.1927 491.905 80.0227 491.905 81.0466C491.905 82.0704 492.733 82.9004 493.755 82.9004Z" fill="white"/>
<path d="M560.95 136.707C560.95 137.214 560.542 137.623 560.036 137.623C559.531 137.623 559.123 137.214 559.123 136.707C559.123 136.2 559.531 135.791 560.036 135.791C560.542 135.791 560.95 136.2 560.95 136.707Z" fill="white"/>
<path d="M452.109 152.378C452.109 153.762 450.992 154.882 449.61 154.882C448.228 154.882 447.111 153.762 447.111 152.378C447.111 150.993 448.228 149.873 449.61 149.873C450.992 149.873 452.109 150.993 452.109 152.378Z" fill="white"/>
<path d="M384.952 140.725C384.952 141.792 384.091 142.654 383.027 142.654C381.962 142.654 381.101 141.792 381.101 140.725C381.101 139.658 381.962 138.795 383.027 138.795C384.091 138.803 384.952 139.666 384.952 140.725Z" fill="white"/>
<path d="M552.849 85.9574C552.849 86.9259 552.063 87.7128 551.097 87.7128C550.131 87.7128 549.345 86.9259 549.345 85.9574C549.345 84.9888 550.131 84.2019 551.097 84.2019C552.063 84.2019 552.849 84.9888 552.849 85.9574Z" fill="white"/>
<path d="M412.932 305.928C413.954 305.928 414.782 305.098 414.782 304.074C414.782 303.05 413.954 302.22 412.932 302.22C411.911 302.22 411.082 303.05 411.082 304.074C411.082 305.098 411.911 305.928 412.932 305.928Z" fill="white"/>
<path d="M480.135 359.734C480.135 360.241 479.727 360.65 479.221 360.65C478.715 360.65 478.308 360.241 478.308 359.734C478.308 359.227 478.715 358.819 479.221 358.819C479.727 358.811 480.135 359.227 480.135 359.734Z" fill="white"/>
<path d="M371.294 375.405C371.294 376.79 370.176 377.91 368.795 377.91C367.413 377.91 366.296 376.79 366.296 375.405C366.296 374.02 367.413 372.9 368.795 372.9C370.176 372.9 371.294 374.02 371.294 375.405Z" fill="white"/>
<path d="M304.137 363.752C304.137 364.819 303.276 365.682 302.211 365.682C301.147 365.682 300.286 364.819 300.286 363.752C300.286 362.685 301.147 361.823 302.211 361.823C303.276 361.823 304.137 362.685 304.137 363.752Z" fill="white"/>
<path d="M472.034 308.985C472.034 309.953 471.248 310.74 470.282 310.74C469.315 310.74 468.53 309.953 468.53 308.985C468.53 308.016 469.315 307.229 470.282 307.229C471.248 307.229 472.034 308.016 472.034 308.985Z" fill="white"/>
<path d="M337.432 390.909C337.987 390.909 338.436 390.459 338.436 389.903C338.436 389.347 337.987 388.896 337.432 388.896C336.878 388.896 336.428 389.347 336.428 389.903C336.428 390.459 336.878 390.909 337.432 390.909Z" fill="white"/>
<path d="M373.967 420.169C373.967 420.442 373.748 420.669 373.468 420.669C373.196 420.669 372.97 420.449 372.97 420.169C372.97 419.889 373.189 419.67 373.468 419.67C373.748 419.67 373.967 419.889 373.967 420.169Z" fill="white"/>
<path d="M314.79 428.69C314.79 429.446 314.178 430.052 313.431 430.052C312.676 430.052 312.072 429.439 312.072 428.69C312.072 427.933 312.683 427.328 313.431 427.328C314.178 427.328 314.79 427.933 314.79 428.69Z" fill="white"/>
<path d="M278.27 422.349C278.27 422.924 277.802 423.393 277.228 423.393C276.655 423.393 276.187 422.924 276.187 422.349C276.187 421.774 276.655 421.304 277.228 421.304C277.802 421.304 278.27 421.774 278.27 422.349Z" fill="white"/>
<path d="M369.565 392.574C369.565 393.103 369.142 393.527 368.614 393.527C368.085 393.527 367.662 393.103 367.662 392.574C367.662 392.044 368.085 391.62 368.614 391.62C369.135 391.62 369.565 392.044 369.565 392.574Z" fill="white"/>
<path d="M123.314 225.313C123.869 225.313 124.318 224.862 124.318 224.306C124.318 223.751 123.869 223.3 123.314 223.3C122.76 223.3 122.31 223.751 122.31 224.306C122.31 224.862 122.76 225.313 123.314 225.313Z" fill="white"/>
<path d="M159.856 254.573C159.856 254.845 159.637 255.072 159.358 255.072C159.086 255.072 158.859 254.853 158.859 254.573C158.859 254.301 159.078 254.074 159.358 254.074C159.63 254.074 159.856 254.301 159.856 254.573Z" fill="white"/>
<path d="M100.672 263.093C100.672 263.85 100.06 264.455 99.3126 264.455C98.5576 264.455 97.9536 263.842 97.9536 263.093C97.9536 262.336 98.5652 261.731 99.3126 261.731C100.068 261.731 100.672 262.344 100.672 263.093Z" fill="white"/>
<path d="M64.1599 256.76C64.1599 257.335 63.6918 257.804 63.118 257.804C62.5441 257.804 62.076 257.335 62.076 256.76C62.076 256.185 62.5441 255.716 63.118 255.716C63.6918 255.716 64.1599 256.177 64.1599 256.76Z" fill="white"/>
<path d="M155.447 226.977C155.447 227.507 155.024 227.931 154.496 227.931C153.967 227.931 153.544 227.507 153.544 226.977C153.544 226.448 153.967 226.024 154.496 226.024C155.024 226.024 155.447 226.455 155.447 226.977Z" fill="white"/>
<path d="M503.479 202.181C504.034 202.181 504.483 201.731 504.483 201.175C504.483 200.619 504.034 200.169 503.479 200.169C502.925 200.169 502.475 200.619 502.475 201.175C502.475 201.731 502.925 202.181 503.479 202.181Z" fill="white"/>
<path d="M540.021 231.442C540.021 231.714 539.802 231.941 539.523 231.941C539.244 231.941 539.025 231.722 539.025 231.442C539.025 231.169 539.244 230.942 539.523 230.942C539.802 230.942 540.021 231.162 540.021 231.442Z" fill="white"/>
<path d="M480.837 239.962C480.837 240.718 480.225 241.324 479.478 241.324C478.723 241.324 478.119 240.711 478.119 239.962C478.119 239.205 478.73 238.6 479.478 238.6C480.233 238.6 480.837 239.213 480.837 239.962Z" fill="white"/>
<path d="M444.325 233.628C444.325 234.204 443.857 234.673 443.283 234.673C442.709 234.673 442.241 234.204 442.241 233.628C442.241 233.053 442.709 232.584 443.283 232.584C443.857 232.577 444.325 233.046 444.325 233.628Z" fill="white"/>
<path d="M535.612 203.846C535.612 204.376 535.189 204.799 534.661 204.799C534.132 204.799 533.709 204.376 533.709 203.846C533.709 203.316 534.132 202.893 534.661 202.893C535.189 202.893 535.612 203.324 535.612 203.846Z" fill="white"/>
<path d="M393.461 135.451C394.015 135.451 394.465 135 394.465 134.445C394.465 133.889 394.015 133.438 393.461 133.438C392.906 133.438 392.457 133.889 392.457 134.445C392.457 135 392.906 135.451 393.461 135.451Z" fill="white"/>
<path d="M430.003 164.711C430.003 164.984 429.784 165.211 429.504 165.211C429.225 165.211 429.006 164.991 429.006 164.711C429.006 164.439 429.225 164.212 429.504 164.212C429.784 164.212 430.003 164.431 430.003 164.711Z" fill="white"/>
<path d="M370.818 173.231C370.818 173.988 370.207 174.593 369.459 174.593C368.704 174.593 368.1 173.98 368.1 173.231C368.1 172.475 368.712 171.869 369.459 171.869C370.214 171.869 370.818 172.482 370.818 173.231Z" fill="white"/>
<path d="M334.306 166.898C334.306 167.473 333.838 167.942 333.265 167.942C332.691 167.942 332.223 167.473 332.223 166.898C332.223 166.323 332.691 165.854 333.265 165.854C333.838 165.846 334.306 166.315 334.306 166.898Z" fill="white"/>
<path d="M425.594 137.116C425.594 137.645 425.171 138.069 424.642 138.069C424.114 138.069 423.691 137.645 423.691 137.116C423.691 136.586 424.114 136.162 424.642 136.162C425.171 136.162 425.594 136.586 425.594 137.116Z" fill="white"/>
<path opacity="0.6" d="M484.589 56.6441C487.481 56.6441 490.184 57.4386 492.502 58.8233C493.053 50.7421 499.765 44.3634 507.964 44.3634C509.965 44.3634 511.875 44.7493 513.627 45.4378C515.861 37.9468 522.785 32.4837 530.984 32.4837C540.995 32.4837 549.104 40.6179 549.104 50.6437C549.104 50.901 549.096 51.1582 549.081 51.4079C549.089 51.4079 549.096 51.4079 549.104 51.4079C559.108 51.4079 567.224 59.5421 567.224 69.5679C567.224 79.6013 559.108 87.7279 549.104 87.7279C548.477 87.7279 547.858 87.6977 547.254 87.6371H486.273C485.714 87.6977 485.156 87.7279 484.582 87.7279C476.02 87.7279 469.074 80.7666 469.074 72.186C469.082 63.6054 476.028 56.6441 484.589 56.6441Z" fill="url(#paint25_linear_2_0)"/>
<path opacity="0.3" d="M407.496 77.2179C405.843 77.2179 404.287 77.6718 402.966 78.4663C402.649 73.8355 398.806 70.1808 394.11 70.1808C393.098 70.1808 392.124 70.3624 391.218 70.6802C389.912 66.4429 385.964 63.3557 381.305 63.3557C380.958 63.3557 380.611 63.3784 380.271 63.4087C375.914 63.6811 372.29 66.6396 371.03 70.6575C370.116 70.3397 369.142 70.1581 368.123 70.1581C363.427 70.1581 359.584 73.8128 359.267 78.4436C357.938 77.6491 356.39 77.1951 354.737 77.1951C349.829 77.1951 345.858 81.1828 345.858 86.0935C345.858 91.0119 349.837 94.992 354.737 94.992C355.061 94.992 355.386 94.9693 355.703 94.939H369.338C369.739 94.9844 370.139 95.0147 370.554 95.0147C370.909 95.0147 371.264 94.9995 371.611 94.9617H391.082C391.279 94.9693 391.475 94.992 391.679 94.992C391.883 94.992 392.079 94.9693 392.275 94.9617H406.53C406.847 94.9995 407.171 95.0147 407.496 95.0147C412.404 95.0147 416.375 91.027 416.375 86.1162C416.375 81.2055 412.396 77.2179 407.496 77.2179Z" fill="url(#paint26_linear_2_0)"/>
<defs>
<radialGradient id="paint0_radial_2_0" cx="0" cy="0" r="1" gradientUnits="userSpaceOnUse" gradientTransform="translate(348.841 210.626) scale(156.017 156.362)">
<stop stop-color="#3E82BF"/>
<stop offset="1" stop-color="#3E82BF" stop-opacity="0"/>
</radialGradient>
<linearGradient id="paint1_linear_2_0" x1="448.29" y1="38.2835" x2="433.315" y2="112.582" gradientUnits="userSpaceOnUse">
<stop stop-color="#4D4D4D"/>
<stop offset="0.2928" stop-color="#898989"/>
<stop offset="0.6276" stop-color="#C8C8C8"/>
<stop offset="0.8728" stop-color="#F0F0F0"/>
<stop offset="1" stop-color="white"/>
</linearGradient>
<linearGradient id="paint2_linear_2_0" x1="448.29" y1="38.2835" x2="433.315" y2="112.582" gradientUnits="userSpaceOnUse">
<stop stop-color="#88CFDA"/>
<stop offset="0.00834131" stop-color="#89CFD9"/>
<stop offset="0.4784" stop-color="#C8D9BB"/>
<stop offset="0.8218" stop-color="#F0DFA7"/>
<stop offset="1" stop-color="#FFE1A0"/>
</linearGradient>
<linearGradient id="paint3_linear_2_0" x1="520.059" y1="142.637" x2="233.377" y2="315.568" gradientUnits="userSpaceOnUse">
<stop stop-color="#1DACFF"/>
<stop offset="0.1355" stop-color="#1CA9FB"/>
<stop offset="0.2739" stop-color="#1B9FEF"/>
<stop offset="0.4138" stop-color="#188EDA"/>
<stop offset="0.5546" stop-color="#1476BD"/>
<stop offset="0.6962" stop-color="#0F5898"/>
<stop offset="0.8385" stop-color="#08326B"/>
<stop offset="0.9788" stop-color="#010737"/>
<stop offset="1" stop-color="#00002E"/>
</linearGradient>
<linearGradient id="paint4_linear_2_0" x1="489.803" y1="144.768" x2="325.614" y2="243.585" gradientUnits="userSpaceOnUse">
<stop stop-color="#1DACFF"/>
<stop offset="0.1355" stop-color="#1CA9FB"/>
<stop offset="0.2739" stop-color="#1B9FEF"/>
<stop offset="0.4138" stop-color="#188EDA"/>
<stop offset="0.5546" stop-color="#1476BD"/>
<stop offset="0.6962" stop-color="#0F5898"/>
<stop offset="0.8385" stop-color="#08326B"/>
<stop offset="0.9788" stop-color="#010737"/>
<stop offset="1" stop-color="#00002E"/>
</linearGradient>
<linearGradient id="paint5_linear_2_0" x1="7.97721" y1="386.989" x2="161.792" y2="386.989" gradientUnits="userSpaceOnUse">
<stop stop-color="#88AEDA"/>
<stop offset="0.0417" stop-color="#8EADD4"/>
<stop offset="0.496" stop-color="#CBA895"/>
<stop offset="0.8277" stop-color="#F1A56D"/>
<stop offset="1" stop-color="#FFA45E"/>
</linearGradient>
<linearGradient id="paint6_linear_2_0" x1="43.1359" y1="380.945" x2="158.732" y2="380.945" gradientUnits="userSpaceOnUse">
<stop stop-color="#88CFDA"/>
<stop offset="0.0417" stop-color="#8ED0D4"/>
<stop offset="0.496" stop-color="#CBD995"/>
<stop offset="0.8277" stop-color="#F1DF6D"/>
<stop offset="1" stop-color="#FFE15E"/>
</linearGradient>
<linearGradient id="paint7_linear_2_0" x1="275.973" y1="343.385" x2="137.211" y2="163.027" gradientUnits="userSpaceOnUse">
<stop stop-color="#A1BAFF"/>
<stop offset="0.4885" stop-color="white"/>
</linearGradient>
<linearGradient id="paint8_linear_2_0" x1="360.616" y1="268.132" x2="333.844" y2="224.547" gradientUnits="userSpaceOnUse">
<stop stop-color="#3D00BA"/>
<stop offset="0.7452" stop-color="#CE00FF"/>
</linearGradient>
<linearGradient id="paint9_linear_2_0" x1="169.532" y1="388.628" x2="257.812" y2="388.628" gradientUnits="userSpaceOnUse">
<stop stop-color="#3D00BA"/>
<stop offset="0.7452" stop-color="#CE00FF"/>
</linearGradient>
<linearGradient id="paint10_linear_2_0" x1="189.606" y1="304.287" x2="136.65" y2="283.498" gradientUnits="userSpaceOnUse">
<stop stop-color="#3D00BA"/>
<stop offset="0.7452" stop-color="#CE00FF"/>
</linearGradient>
<linearGradient id="paint11_linear_2_0" x1="181.196" y1="382.132" x2="144.646" y2="326.776" gradientUnits="userSpaceOnUse">
<stop stop-color="#270036"/>
<stop offset="0.4379" stop-color="#4F008B"/>
<stop offset="1" stop-color="#4C24B1"/>
</linearGradient>
<linearGradient id="paint12_linear_2_0" x1="138.398" y1="336.666" x2="164.512" y2="382.265" gradientUnits="userSpaceOnUse">
<stop stop-color="#7633FF"/>
<stop offset="0.1585" stop-color="#7137FF"/>
<stop offset="0.3535" stop-color="#6243FF"/>
<stop offset="0.5676" stop-color="#4957FF"/>
<stop offset="0.7937" stop-color="#2672FF"/>
<stop offset="1" stop-color="#0090FF"/>
</linearGradient>
<linearGradient id="paint13_linear_2_0" x1="233.597" y1="300.644" x2="120.267" y2="361.083" gradientUnits="userSpaceOnUse">
<stop stop-color="#7633FF"/>
<stop offset="0.1316" stop-color="#6342FF"/>
<stop offset="0.5337" stop-color="#2E6CFF"/>
<stop offset="0.8353" stop-color="#0D86FF"/>
<stop offset="1" stop-color="#0090FF"/>
</linearGradient>
<linearGradient id="paint14_linear_2_0" x1="117.258" y1="337.76" x2="226.795" y2="337.76" gradientUnits="userSpaceOnUse">
<stop stop-color="#3D00BA"/>
<stop offset="0.7452" stop-color="#CE00FF"/>
</linearGradient>
<linearGradient id="paint15_linear_2_0" x1="250.221" y1="141.245" x2="317.988" y2="141.245" gradientUnits="userSpaceOnUse">
<stop stop-color="#7633FF"/>
<stop offset="0.1585" stop-color="#7137FF"/>
<stop offset="0.3535" stop-color="#6243FF"/>
<stop offset="0.5676" stop-color="#4957FF"/>
<stop offset="0.7937" stop-color="#2672FF"/>
<stop offset="1" stop-color="#0090FF"/>
</linearGradient>
<linearGradient id="paint16_linear_2_0" x1="240.572" y1="249.781" x2="274.546" y2="139.392" gradientUnits="userSpaceOnUse">
<stop stop-color="#7633FF"/>
<stop offset="0.1106" stop-color="#6640FF"/>
<stop offset="0.5243" stop-color="#2F6BFF"/>
<stop offset="0.8331" stop-color="#0D86FF"/>
<stop offset="1" stop-color="#0090FF"/>
</linearGradient>
<linearGradient id="paint17_linear_2_0" x1="250.663" y1="193.574" x2="271.405" y2="193.574" gradientUnits="userSpaceOnUse">
<stop stop-color="#7700BB"/>
<stop offset="1"/>
</linearGradient>
<linearGradient id="paint18_linear_2_0" x1="247.088" y1="150.043" x2="266.915" y2="150.043" gradientUnits="userSpaceOnUse">
<stop stop-color="#7633FF"/>
<stop offset="0.1585" stop-color="#7137FF"/>
<stop offset="0.3535" stop-color="#6243FF"/>
<stop offset="0.5676" stop-color="#4957FF"/>
<stop offset="0.7937" stop-color="#2672FF"/>
<stop offset="1" stop-color="#0090FF"/>
</linearGradient>
<linearGradient id="paint19_linear_2_0" x1="249.136" y1="213.561" x2="268.658" y2="213.561" gradientUnits="userSpaceOnUse">
<stop stop-color="#7700BB"/>
<stop offset="1"/>
</linearGradient>
<linearGradient id="paint20_linear_2_0" x1="212.262" y1="306.531" x2="236.556" y2="306.531" gradientUnits="userSpaceOnUse">
<stop stop-color="#270036"/>
<stop offset="0.5936" stop-color="#4F008B"/>
<stop offset="1" stop-color="#4C24B1"/>
</linearGradient>
<linearGradient id="paint21_linear_2_0" x1="259.765" y1="147.169" x2="286.083" y2="147.169" gradientUnits="userSpaceOnUse">
<stop stop-color="#A1BAFF"/>
<stop offset="0.4885" stop-color="white"/>
</linearGradient>
<linearGradient id="paint22_linear_2_0" x1="250.652" y1="193.536" x2="318.98" y2="193.536" gradientUnits="userSpaceOnUse">
<stop stop-color="#7633FF"/>
<stop offset="0.1585" stop-color="#7137FF"/>
<stop offset="0.3535" stop-color="#6243FF"/>
<stop offset="0.5676" stop-color="#4957FF"/>
<stop offset="0.7937" stop-color="#2672FF"/>
<stop offset="1" stop-color="#0090FF"/>
</linearGradient>
<linearGradient id="paint23_linear_2_0" x1="320.39" y1="222.438" x2="346.635" y2="222.438" gradientUnits="userSpaceOnUse">
<stop stop-color="#A1BAFF"/>
<stop offset="0.4885" stop-color="white"/>
</linearGradient>
<linearGradient id="paint24_linear_2_0" x1="317.678" y1="116.53" x2="340.108" y2="116.53" gradientUnits="userSpaceOnUse">
<stop stop-color="#A1BAFF"/>
<stop offset="0.4885" stop-color="white"/>
</linearGradient>
<linearGradient id="paint25_linear_2_0" x1="469.083" y1="60.1051" x2="567.235" y2="60.1051" gradientUnits="userSpaceOnUse">
<stop stop-color="#A1BAFF"/>
<stop offset="0.0888" stop-color="#ACC2FF"/>
<stop offset="0.4988" stop-color="#D9E3FF"/>
<stop offset="0.816" stop-color="#F5F7FF"/>
<stop offset="1" stop-color="white"/>
</linearGradient>
<linearGradient id="paint26_linear_2_0" x1="345.845" y1="79.1884" x2="416.375" y2="79.1884" gradientUnits="userSpaceOnUse">
<stop stop-color="#A1BAFF"/>
<stop offset="0.0888" stop-color="#ACC2FF"/>
<stop offset="0.4988" stop-color="#D9E3FF"/>
<stop offset="0.816" stop-color="#F5F7FF"/>
<stop offset="1" stop-color="white"/>
</linearGradient>
</defs>
</svg>
